<mxfile host="app.diagrams.net" modified="2023-06-26T11:26:18.183Z" agent="Mozilla/5.0 (Windows NT 10.0; Win64; x64) AppleWebKit/537.36 (KHTML, like Gecko) Chrome/114.0.0.0 Safari/537.36" etag="ww1gGpEEgdF6GA4mQivx" version="21.5.0" type="github">
  <diagram name="Page-1" id="Q3HcIqTqpBsvjILjZsKw">
    <mxGraphModel dx="683" dy="436" grid="1" gridSize="10" guides="1" tooltips="1" connect="1" arrows="1" fold="1" page="1" pageScale="1" pageWidth="850" pageHeight="1100" math="0" shadow="0">
      <root>
        <mxCell id="0" />
        <mxCell id="1" parent="0" />
        <mxCell id="EVQqs-EQbGzTWiBJvweW-2" value="" style="rounded=1;whiteSpace=wrap;html=1;dashed=1;strokeColor=#808080;" vertex="1" parent="1">
          <mxGeometry x="66" y="170" width="220" height="200" as="geometry" />
        </mxCell>
        <mxCell id="EVQqs-EQbGzTWiBJvweW-1" value="" style="editableCssRules=.*;html=1;shape=image;verticalLabelPosition=bottom;labelBackgroundColor=#ffffff;verticalAlign=top;aspect=fixed;imageAspect=0;image=data:image/svg+xml,PHN2ZyB4bWxucz0iaHR0cDovL3d3dy53My5vcmcvMjAwMC9zdmciIHhtbG5zOnY9Imh0dHBzOi8vdmVjdGEuaW8vbmFubyIgd2lkdGg9IjE2LjQyMDAwMDA3NjI5Mzk0NSIgaGVpZ2h0PSIyMC4wNDk5OTkyMzcwNjA1NDciIGZpbGwtcnVsZT0iZXZlbm9kZCIgdmlld0JveD0iMCAwIDE2LjQyMDAwMDA3NjI5Mzk0NSAyMC4wNDk5OTkyMzcwNjA1NDciPiYjeGE7CTxzdHlsZSB0eXBlPSJ0ZXh0L2NzcyI+JiN4YTsJLnN0MHtmaWxsOiM0Mjg1ZjQ7fSYjeGE7CS5zdDF7ZmlsbDojNjY5ZGY2O30mI3hhOwk8L3N0eWxlPiYjeGE7CTxwYXRoIGNsYXNzPSJzdDEiIGQ9Ik04LjIxIDBMMCAzLjQydjUuNjNjMCA1LjA2IDMuNSA5LjggOC4yMSAxMSA0LjcxLTEuMTUgOC4yMS01Ljg5IDguMjEtMTAuOTVWMy40MnptMCAzLjc5YTIuNjMgMi42MyAwIDAgMSAxLjAwNSA1LjA2QTIuNjMgMi42MyAwIDAgMSA2LjM1IDQuNTZhMi42MyAyLjYzIDAgMCAxIDEuODYtLjc3em00LjExIDExLjE1YTguNjQgOC42NCAwIDAgMS00LjExIDIuOTMgOC42NCA4LjY0IDAgMCAxLTQuMTEtMi45M3YtMi4yNWMwLTEuNjcgMi43NC0yLjUyIDQuMTEtMi41MnM0LjExLjg1IDQuMTEgMi41MnoiLz4mI3hhOwk8cGF0aCBjbGFzcz0ic3QwIiBkPSJNOC4yMSAwdjMuNzlhMi42MyAyLjYzIDAgMSAxIDAgNS4yNnYxLjEyYzEuMzcgMCA0LjExLjg1IDQuMTEgMi41MnYyLjI1YTguNjQgOC42NCAwIDAgMS00LjExIDIuOTNWMjBjNC43MS0xLjE1IDguMjEtNS44OSA4LjIxLTEwLjk1VjMuNDJ6Ii8+JiN4YTs8L3N2Zz4=;" vertex="1" parent="1">
          <mxGeometry x="40" y="169" width="32" height="40" as="geometry" />
        </mxCell>
        <mxCell id="EVQqs-EQbGzTWiBJvweW-4" value="&lt;font style=&quot;font-size: 10px;&quot;&gt;- users&lt;br&gt;&amp;nbsp; &amp;nbsp;admin@cloudgtz.com&lt;br&gt;&amp;nbsp; &amp;nbsp;user1@cloudgtz.com&lt;br&gt;- Groups&lt;br&gt;&amp;nbsp; &amp;nbsp;admins@cloudgtz.com&lt;br&gt;&amp;nbsp; &amp;nbsp;users-ro@cloudgtz.com&lt;br&gt;&amp;nbsp;- Organization Units&lt;br&gt;&amp;nbsp; &amp;nbsp; cloudgtz&lt;br&gt;&lt;/font&gt;" style="rounded=1;whiteSpace=wrap;html=1;strokeColor=#E6E6E6;align=left;strokeWidth=1;fillColor=#F7F7F7;fontColor=#333333;dashed=1;dashPattern=1 1;" vertex="1" parent="1">
          <mxGeometry x="86" y="186" width="180" height="114" as="geometry" />
        </mxCell>
        <mxCell id="EVQqs-EQbGzTWiBJvweW-6" value="&lt;font style=&quot;font-size: 10px;&quot;&gt;&lt;b style=&quot;font-size: 10px;&quot;&gt;Directory&lt;/b&gt;&lt;/font&gt;" style="text;html=1;strokeColor=none;fillColor=none;align=center;verticalAlign=middle;whiteSpace=wrap;rounded=0;fontSize=10;fontColor=#0066CC;" vertex="1" parent="1">
          <mxGeometry x="86" y="165" width="60" height="30" as="geometry" />
        </mxCell>
        <mxCell id="EVQqs-EQbGzTWiBJvweW-7" value="&lt;font style=&quot;font-size: 10px;&quot;&gt;- Domains&lt;br&gt;&amp;nbsp; &amp;nbsp;Managed domains&lt;br&gt;&amp;nbsp; &amp;nbsp; &amp;nbsp;- cloudgtz.com&lt;/font&gt;" style="rounded=1;whiteSpace=wrap;html=1;strokeColor=#E6E6E6;align=left;strokeWidth=1;fillColor=#f5f5f5;fontColor=#333333;dashed=1;dashPattern=1 1;" vertex="1" parent="1">
          <mxGeometry x="86" y="321" width="180" height="44" as="geometry" />
        </mxCell>
        <mxCell id="EVQqs-EQbGzTWiBJvweW-8" value="&lt;font style=&quot;font-size: 10px;&quot;&gt;&lt;b style=&quot;font-size: 10px;&quot;&gt;Account&lt;/b&gt;&lt;/font&gt;" style="text;html=1;strokeColor=none;fillColor=none;align=center;verticalAlign=middle;whiteSpace=wrap;rounded=0;fontSize=10;fontColor=#0066CC;" vertex="1" parent="1">
          <mxGeometry x="86" y="300" width="60" height="30" as="geometry" />
        </mxCell>
        <mxCell id="EVQqs-EQbGzTWiBJvweW-9" value="&lt;font style=&quot;font-size: 10px;&quot;&gt;&lt;b style=&quot;font-size: 10px;&quot;&gt;Cloud Identity&lt;/b&gt;&lt;/font&gt;" style="text;html=1;strokeColor=none;fillColor=none;align=center;verticalAlign=middle;whiteSpace=wrap;rounded=0;fontSize=10;fontColor=#0066CC;" vertex="1" parent="1">
          <mxGeometry x="36" y="144" width="70" height="30" as="geometry" />
        </mxCell>
        <mxCell id="EVQqs-EQbGzTWiBJvweW-20" value="" style="rounded=1;whiteSpace=wrap;html=1;dashed=1;strokeColor=#808080;" vertex="1" parent="1">
          <mxGeometry x="360" y="170" width="220" height="200" as="geometry" />
        </mxCell>
        <mxCell id="EVQqs-EQbGzTWiBJvweW-22" value="&lt;font style=&quot;font-size: 10px;&quot;&gt;- &lt;font color=&quot;#000066&quot;&gt;IAM [+Grant Access]&lt;/font&gt;&lt;br&gt;&amp;nbsp; &amp;nbsp;admin@cloudgtz.com&lt;br&gt;&amp;nbsp; &amp;nbsp;user1@cloudgtz.com&lt;br&gt;&amp;nbsp; &amp;nbsp;admins@cloudgtz.com&lt;br&gt;&amp;nbsp; &amp;nbsp;users-ro@cloudgtz.com&lt;br&gt;&lt;/font&gt;" style="rounded=1;whiteSpace=wrap;html=1;strokeColor=#E6E6E6;align=left;strokeWidth=1;fillColor=#F7F7F7;fontColor=#333333;dashed=1;dashPattern=1 1;" vertex="1" parent="1">
          <mxGeometry x="380" y="197" width="180" height="74" as="geometry" />
        </mxCell>
        <mxCell id="EVQqs-EQbGzTWiBJvweW-23" value="&lt;font style=&quot;font-size: 10px;&quot;&gt;&lt;b style=&quot;font-size: 10px;&quot;&gt;Organization&amp;nbsp;&lt;/b&gt;[cloudgtz.com]&lt;b style=&quot;font-size: 10px;&quot;&gt;&lt;br&gt;IAM &amp;amp; Admin&amp;nbsp;&lt;/b&gt;&lt;/font&gt;" style="text;html=1;strokeColor=none;fillColor=none;align=left;verticalAlign=middle;whiteSpace=wrap;rounded=0;fontSize=10;fontColor=#0066CC;" vertex="1" parent="1">
          <mxGeometry x="380" y="171" width="140" height="30" as="geometry" />
        </mxCell>
        <mxCell id="EVQqs-EQbGzTWiBJvweW-24" value="&lt;p style=&quot;line-height: 100%;&quot;&gt;&lt;font style=&quot;font-size: 10px;&quot;&gt;- Admin&amp;nbsp;&lt;br&gt;- Compute Network Admin&lt;br&gt;- users-ro (custom role)&lt;/font&gt;&lt;/p&gt;" style="rounded=1;whiteSpace=wrap;html=1;strokeColor=#E6E6E6;align=left;strokeWidth=1;fillColor=#f5f5f5;fontColor=#333333;dashed=1;dashPattern=1 1;spacing=0;" vertex="1" parent="1">
          <mxGeometry x="380" y="291" width="180" height="40" as="geometry" />
        </mxCell>
        <mxCell id="EVQqs-EQbGzTWiBJvweW-25" value="&lt;font style=&quot;font-size: 10px;&quot;&gt;&lt;b style=&quot;font-size: 10px;&quot;&gt;Roles&lt;/b&gt;&lt;/font&gt;" style="text;html=1;strokeColor=none;fillColor=none;align=left;verticalAlign=middle;whiteSpace=wrap;rounded=0;fontSize=10;fontColor=#0066CC;" vertex="1" parent="1">
          <mxGeometry x="380" y="270" width="60" height="30" as="geometry" />
        </mxCell>
        <mxCell id="EVQqs-EQbGzTWiBJvweW-26" value="&lt;font style=&quot;font-size: 10px;&quot;&gt;&lt;b style=&quot;font-size: 10px;&quot;&gt;Google Cloud Platform&lt;/b&gt;&lt;/font&gt;" style="text;html=1;strokeColor=none;fillColor=none;align=left;verticalAlign=middle;whiteSpace=wrap;rounded=0;fontSize=10;fontColor=#0066CC;" vertex="1" parent="1">
          <mxGeometry x="330" y="144" width="120" height="30" as="geometry" />
        </mxCell>
        <mxCell id="EVQqs-EQbGzTWiBJvweW-19" value="" style="shape=image;imageAspect=0;aspect=fixed;verticalLabelPosition=bottom;verticalAlign=top;image=https://static-00.iconduck.com/assets.00/google-cloud-icon-2048x1646-7admxejz.png;" vertex="1" parent="1">
          <mxGeometry x="322" y="165" width="47.27" height="38" as="geometry" />
        </mxCell>
        <mxCell id="EVQqs-EQbGzTWiBJvweW-27" value="" style="rounded=1;whiteSpace=wrap;html=1;dashed=1;strokeColor=#808080;" vertex="1" parent="1">
          <mxGeometry x="66" y="416" width="220" height="94" as="geometry" />
        </mxCell>
        <mxCell id="EVQqs-EQbGzTWiBJvweW-29" value="&lt;font style=&quot;font-size: 10px;&quot;&gt;&lt;b style=&quot;font-size: 10px;&quot;&gt;Google Domains&lt;/b&gt;&lt;/font&gt;" style="text;html=1;strokeColor=none;fillColor=none;align=center;verticalAlign=middle;whiteSpace=wrap;rounded=0;fontSize=10;fontColor=#0066CC;" vertex="1" parent="1">
          <mxGeometry x="36" y="390" width="94" height="30" as="geometry" />
        </mxCell>
        <mxCell id="EVQqs-EQbGzTWiBJvweW-30" value="" style="shape=image;imageAspect=0;aspect=fixed;verticalLabelPosition=bottom;verticalAlign=top;image=https://seeklogo.com/images/G/google-domains-icon-logo-28608A5A4A-seeklogo.com.png;" vertex="1" parent="1">
          <mxGeometry x="36" y="416" width="42.86" height="40" as="geometry" />
        </mxCell>
        <mxCell id="EVQqs-EQbGzTWiBJvweW-31" value="&lt;font style=&quot;font-size: 10px;&quot;&gt;Users&lt;br&gt;Domain Permissions&lt;br&gt;[Add User]&lt;br&gt;&amp;nbsp; &amp;nbsp;admin@cloudgtz.com&lt;br&gt;&lt;/font&gt;" style="rounded=1;whiteSpace=wrap;html=1;strokeColor=#E6E6E6;align=left;strokeWidth=1;fillColor=#F7F7F7;fontColor=#333333;dashed=1;dashPattern=1 1;" vertex="1" parent="1">
          <mxGeometry x="78.86" y="436" width="180" height="64" as="geometry" />
        </mxCell>
        <mxCell id="EVQqs-EQbGzTWiBJvweW-32" value="&lt;font style=&quot;font-size: 10px;&quot;&gt;&lt;b style=&quot;font-size: 10px;&quot;&gt;Registration Settings&lt;/b&gt;&lt;/font&gt;" style="text;html=1;strokeColor=none;fillColor=none;align=center;verticalAlign=middle;whiteSpace=wrap;rounded=0;fontSize=10;fontColor=#0066CC;" vertex="1" parent="1">
          <mxGeometry x="78.86" y="415" width="111.14" height="30" as="geometry" />
        </mxCell>
        <mxCell id="EVQqs-EQbGzTWiBJvweW-33" style="edgeStyle=orthogonalEdgeStyle;rounded=0;orthogonalLoop=1;jettySize=auto;html=1;exitX=1;exitY=0.5;exitDx=0;exitDy=0;entryX=1;entryY=0.5;entryDx=0;entryDy=0;fontColor=#CCCCCC;strokeColor=#808080;" edge="1" parent="1" source="EVQqs-EQbGzTWiBJvweW-7" target="EVQqs-EQbGzTWiBJvweW-31">
          <mxGeometry relative="1" as="geometry">
            <Array as="points">
              <mxPoint x="310" y="343" />
              <mxPoint x="310" y="468" />
            </Array>
          </mxGeometry>
        </mxCell>
        <mxCell id="EVQqs-EQbGzTWiBJvweW-34" value="&lt;font color=&quot;#333333&quot; style=&quot;font-size: 10px;&quot;&gt;Verify Domain&lt;/font&gt;" style="edgeLabel;html=1;align=center;verticalAlign=middle;resizable=0;points=[];" vertex="1" connectable="0" parent="EVQqs-EQbGzTWiBJvweW-33">
          <mxGeometry x="-0.1412" y="-1" relative="1" as="geometry">
            <mxPoint as="offset" />
          </mxGeometry>
        </mxCell>
        <mxCell id="EVQqs-EQbGzTWiBJvweW-35" value="" style="rounded=1;whiteSpace=wrap;html=1;dashed=1;strokeColor=#808080;" vertex="1" parent="1">
          <mxGeometry x="66" y="536" width="220" height="74" as="geometry" />
        </mxCell>
        <mxCell id="EVQqs-EQbGzTWiBJvweW-36" value="&lt;font style=&quot;font-size: 10px;&quot;&gt;&lt;b style=&quot;font-size: 10px;&quot;&gt;AWS Route53 Domains&lt;/b&gt;&lt;/font&gt;" style="text;html=1;strokeColor=none;fillColor=none;align=center;verticalAlign=middle;whiteSpace=wrap;rounded=0;fontSize=10;fontColor=#0066CC;" vertex="1" parent="1">
          <mxGeometry x="36" y="510" width="114" height="30" as="geometry" />
        </mxCell>
        <mxCell id="EVQqs-EQbGzTWiBJvweW-38" value="&lt;font style=&quot;font-size: 10px;&quot;&gt;Options&lt;br&gt;- Add CNAME&lt;br&gt;- Add TXT Record&lt;br&gt;&lt;/font&gt;" style="rounded=1;whiteSpace=wrap;html=1;strokeColor=#E6E6E6;align=left;strokeWidth=1;fillColor=#F7F7F7;fontColor=#333333;dashed=1;dashPattern=1 1;" vertex="1" parent="1">
          <mxGeometry x="78.86" y="556" width="180" height="44" as="geometry" />
        </mxCell>
        <mxCell id="EVQqs-EQbGzTWiBJvweW-39" value="&lt;font style=&quot;font-size: 10px;&quot;&gt;&lt;b style=&quot;font-size: 10px;&quot;&gt;Public Zones&lt;/b&gt;&lt;/font&gt;" style="text;html=1;strokeColor=none;fillColor=none;align=center;verticalAlign=middle;whiteSpace=wrap;rounded=0;fontSize=10;fontColor=#0066CC;" vertex="1" parent="1">
          <mxGeometry x="78.86" y="535" width="111.14" height="30" as="geometry" />
        </mxCell>
        <mxCell id="EVQqs-EQbGzTWiBJvweW-40" value="" style="shape=image;imageAspect=0;aspect=fixed;verticalLabelPosition=bottom;verticalAlign=top;image=https://upload.wikimedia.org/wikipedia/commons/thumb/9/93/Amazon_Web_Services_Logo.svg/1280px-Amazon_Web_Services_Logo.svg.png;" vertex="1" parent="1">
          <mxGeometry x="33.36" y="535" width="45.27" height="27.08" as="geometry" />
        </mxCell>
        <mxCell id="EVQqs-EQbGzTWiBJvweW-41" style="edgeStyle=orthogonalEdgeStyle;rounded=0;orthogonalLoop=1;jettySize=auto;html=1;exitX=1;exitY=0.5;exitDx=0;exitDy=0;entryX=1;entryY=0.5;entryDx=0;entryDy=0;fontColor=#808080;strokeColor=#808080;" edge="1" parent="1" source="EVQqs-EQbGzTWiBJvweW-7" target="EVQqs-EQbGzTWiBJvweW-38">
          <mxGeometry relative="1" as="geometry">
            <Array as="points">
              <mxPoint x="310" y="343" />
              <mxPoint x="310" y="578" />
            </Array>
          </mxGeometry>
        </mxCell>
      </root>
    </mxGraphModel>
  </diagram>
</mxfile>
